# xmcd CD database file
#
# Track frame offsets:
#	150
#	28387
#	54725
#	73245
#	87707
#	107004
#	127537
#	151180
#	177842
#	201567
#	226642
#
# Disc length: 3229 seconds
#
# Revision: 1
# Processed by: cddbd v1.5.1PL0 Copyright (c) Steve Scherf et al.
# Submitted via: CDex 1.51
#
DISCID=940c9b0b
DTITLE=Dave Grusin - Price Less Jazz Collection 28
DYEAR=1998
DGENRE=Jazz
TTITLE0=Mountain Dance
TTITLE1=Southwest Passage
TTITLE2=Catavento
TTITLE3=Tahnksong
TTITLE4=Theme From St. Elsewhere
TTITLE5=Rag Bag
TTITLE6=Last Train To Paradiso
TTITLE7=In The Middle Of The Night
TTITLE8=Sweetwater Nights
TTITLE9=Punta Del Soul
TTITLE10=Sophisticated Lady
EXTD=YEAR: 1998
EXTT0=
EXTT1=
EXTT2=
EXTT3=
EXTT4=
EXTT5=
EXTT6=
EXTT7=
EXTT8=
EXTT9=
EXTT10=
PLAYORDER=
